<?xml version="1.0" encoding="utf-8"?>
<svg viewBox="172.537 214.154 82.451 78.989" color-interpolation-filters="sRGB" style="margin: auto;" xmlns="http://www.w3.org/2000/svg">
  <rect data-v-0dd9719b="" x="0" y="0" width="100%" height="100%" fill="url(#watermark)" fill-opacity="1" class="watermarklayer" transform="matrix(1, 0, 0, 1, -7.105427357601002e-15, 0)"/>
  <g data-v-0dd9719b="" fill="#42707F" class="icon-text-wrapper icon-svg-group iconsvg" transform="matrix(1, 0, 0, 1, 124.70582580566406, 218.7806396484375)">
    <g class="iconsvg-imagesvg" transform="translate(59.49500274658203,0)">
      <g>
        <rect fill="#42707F" fill-opacity="0" stroke-width="2" x="0" width="60" height="62.62786522483404" class="image-rect" y="0"/>
        <svg filter="url(#colors7908553202)" x="0" y="0" width="60" height="62.62786522483404" filtersec="colorsf9716294359" class="image-svg-svg primary" style="overflow: visible;">
          <svg xmlns="http://www.w3.org/2000/svg" version="1.1" x="0px" y="0px" viewBox="6.100000381469727 3.600001335144043 89.0018310546875 92.9000015258789">
            <path d="M58.5,74.6c-0.7-0.3-0.8-1.2-0.1-1.7c4-2.7,6.3-7.6,5.4-13c-0.9-5-4.9-9.2-9.9-10.2c-0.9-0.2-1.9-0.3-2.8-0.3  c-7.1,0-12.9,5.8-12.9,12.9c0,4.3,2.1,8,5.3,10.4c0.6,0.4,0.5,1.4-0.2,1.7c-7.8,3-13.4,10.5-13.4,19.4c0,1.5,1.2,2.7,2.7,2.7h36.1  c1.5,0,2.7-1.2,2.7-2.7C71.3,85.2,66,77.7,58.5,74.6z M41.3,44.4c-1.1,0-2.2-0.4-3.2-1c-1.7-1.2-2.5-3.3-2.2-5.3l1.4-8l-5.8-5.7  c-1.5-1.5-2-3.6-1.4-5.6s2.3-3.4,4.4-3.7l8.1-1.2l3.6-7.3c0.9-1.9,2.8-3,4.9-3c2.1,0,4,1.2,4.9,3l3.6,7.3l8.1,1.2  c2.1,0.3,3.7,1.7,4.4,3.7c0.6,2,0.1,4.1-1.4,5.6L64.8,30l1.4,8c0.4,2.1-0.5,4.1-2.2,5.3c-1.7,1.2-3.9,1.4-5.7,0.4L51,40l-7.2,3.8  C43,44.2,42.2,44.4,41.3,44.4z M51,9l-3.6,7.3c-0.8,1.6-2.3,2.7-4.1,3l-8.1,1.2l5.8,5.7c1.3,1.3,1.9,3.1,1.6,4.8l-1.4,8l7.2-3.8  c1.6-0.8,3.5-0.8,5.1,0l7.2,3.8l-1.4-8c-0.3-1.8,0.3-3.6,1.6-4.8l5.8-5.7l-8.1-1.2c-1.8-0.3-3.3-1.4-4.1-3L51,9z M26.2,84.4H8.1  c-1.1,0-2-0.9-2-2c0-6.7,4.2-12.4,10.1-14.6c0.5-0.2,0.6-0.9,0.2-1.2c-2.4-1.8-4-4.6-4-7.8c0-5.4,4.4-9.7,9.7-9.7  c0.7,0,1.4,0.1,2.1,0.2c3.8,0.8,6.8,3.9,7.5,7.7c0.7,4-1.1,7.7-4,9.8c-0.5,0.3-0.4,1,0.1,1.3c2.7,1.1,5.1,3,6.8,5.4  C30.7,76.2,27.9,80,26.2,84.4z M95.1,82.3c0,1.1-0.9,2-2,2H75c-1.7-4.4-4.5-8.2-8.2-11.1c1.8-2.5,4.3-4.4,7.2-5.5  c0.5-0.2,0.6-0.9,0.2-1.2c-2.4-1.8-4-4.6-4-7.8c0-5.4,4.4-9.7,9.7-9.7c0.7,0,1.4,0.1,2.1,0.2c3.8,0.8,6.8,3.9,7.5,7.7  c0.7,4-1.1,7.7-4,9.8c-0.5,0.3-0.4,1,0.1,1.3C91.2,70.2,95.2,75.8,95.1,82.3z"/>
          </svg>
        </svg>
        <defs>
          <filter id="colors7908553202">
            <feColorMatrix type="matrix" values="0 0 0 0 0.99609375  0 0 0 0 0.35546875  0 0 0 0 0.359375  0 0 0 1 0" class="icon-fecolormatrix"/>
          </filter>
        </defs>
      </g>
    </g>
    <g transform="translate(0,69.62786483764648)">
      <g data-gra="path-name" fill-rule="" class="tp-name iconsvg-namesvg" transform="translate(0,0)">
        <g transform="scale(1)">
          <g/>
        </g>
      </g>
      <g data-gra="path-slogan" fill-rule="" class="tp-slogan iconsvg-slogansvg" fill="#FF64B1" transform="translate(2.2750015258789062,37.95000076293945)">
        <g transform="scale(1, 1)">
          <g transform="scale(1)"/>
        </g>
      </g>
    </g>
  </g>
</svg>