<?xml version="1.0" encoding="utf-8"?>
<svg viewBox="62.815 53.841 211.877 144.81" width="211.877" height="144.81" color-interpolation-filters="sRGB" style="margin: auto;" xmlns="http://www.w3.org/2000/svg">
  <rect data-v-0dd9719b="" x="0" y="0" width="100%" height="100%" fill="#fff6e5" fill-opacity="1" class="background"/>
  <rect data-v-0dd9719b="" x="0" y="0" width="100%" height="100%" fill="url(#watermark)" fill-opacity="1" class="watermarklayer"/>
  <g data-v-0dd9719b="" fill="#42707F" class="icon-text-wrapper icon-svg-group iconsvg" transform="matrix(1, 0, 0, 1, 80.50499725341797, 67.41143798828125)">
    <g class="iconsvg-imagesvg" transform="translate(59.49500274658203,0)">
      <g>
        <rect fill="#42707F" fill-opacity="0" stroke-width="2" x="0" y="0" width="60" height="62.62786522483404" class="image-rect"/>
        <svg filter="url(#colors7908553202)" x="0" y="0" width="60" height="62.62786522483404" filtersec="colorsf9716294359" class="image-svg-svg primary" style="overflow: visible;">
          <svg xmlns="http://www.w3.org/2000/svg" version="1.1" x="0px" y="0px" viewBox="6.100000381469727 3.600001335144043 89.0018310546875 92.9000015258789">
            <path d="M58.5,74.6c-0.7-0.3-0.8-1.2-0.1-1.7c4-2.7,6.3-7.6,5.4-13c-0.9-5-4.9-9.2-9.9-10.2c-0.9-0.2-1.9-0.3-2.8-0.3  c-7.1,0-12.9,5.8-12.9,12.9c0,4.3,2.1,8,5.3,10.4c0.6,0.4,0.5,1.4-0.2,1.7c-7.8,3-13.4,10.5-13.4,19.4c0,1.5,1.2,2.7,2.7,2.7h36.1  c1.5,0,2.7-1.2,2.7-2.7C71.3,85.2,66,77.7,58.5,74.6z M41.3,44.4c-1.1,0-2.2-0.4-3.2-1c-1.7-1.2-2.5-3.3-2.2-5.3l1.4-8l-5.8-5.7  c-1.5-1.5-2-3.6-1.4-5.6s2.3-3.4,4.4-3.7l8.1-1.2l3.6-7.3c0.9-1.9,2.8-3,4.9-3c2.1,0,4,1.2,4.9,3l3.6,7.3l8.1,1.2  c2.1,0.3,3.7,1.7,4.4,3.7c0.6,2,0.1,4.1-1.4,5.6L64.8,30l1.4,8c0.4,2.1-0.5,4.1-2.2,5.3c-1.7,1.2-3.9,1.4-5.7,0.4L51,40l-7.2,3.8  C43,44.2,42.2,44.4,41.3,44.4z M51,9l-3.6,7.3c-0.8,1.6-2.3,2.7-4.1,3l-8.1,1.2l5.8,5.7c1.3,1.3,1.9,3.1,1.6,4.8l-1.4,8l7.2-3.8  c1.6-0.8,3.5-0.8,5.1,0l7.2,3.8l-1.4-8c-0.3-1.8,0.3-3.6,1.6-4.8l5.8-5.7l-8.1-1.2c-1.8-0.3-3.3-1.4-4.1-3L51,9z M26.2,84.4H8.1  c-1.1,0-2-0.9-2-2c0-6.7,4.2-12.4,10.1-14.6c0.5-0.2,0.6-0.9,0.2-1.2c-2.4-1.8-4-4.6-4-7.8c0-5.4,4.4-9.7,9.7-9.7  c0.7,0,1.4,0.1,2.1,0.2c3.8,0.8,6.8,3.9,7.5,7.7c0.7,4-1.1,7.7-4,9.8c-0.5,0.3-0.4,1,0.1,1.3c2.7,1.1,5.1,3,6.8,5.4  C30.7,76.2,27.9,80,26.2,84.4z M95.1,82.3c0,1.1-0.9,2-2,2H75c-1.7-4.4-4.5-8.2-8.2-11.1c1.8-2.5,4.3-4.4,7.2-5.5  c0.5-0.2,0.6-0.9,0.2-1.2c-2.4-1.8-4-4.6-4-7.8c0-5.4,4.4-9.7,9.7-9.7c0.7,0,1.4,0.1,2.1,0.2c3.8,0.8,6.8,3.9,7.5,7.7  c0.7,4-1.1,7.7-4,9.8c-0.5,0.3-0.4,1,0.1,1.3C91.2,70.2,95.2,75.8,95.1,82.3z"/>
          </svg>
        </svg>
        <defs>
          <filter id="colors7908553202">
            <feColorMatrix type="matrix" values="0 0 0 0 0.99609375  0 0 0 0 0.35546875  0 0 0 0 0.359375  0 0 0 1 0" class="icon-fecolormatrix"/>
          </filter>
        </defs>
      </g>
    </g>
    <g transform="translate(0,69.62786483764648)">
      <g data-gra="path-name" fill-rule="" class="tp-name iconsvg-namesvg" transform="translate(0,0)">
        <g transform="scale(1)">
          <g>
            <path d="M1.14-22.99L1.14-23.66Q1.97-23.63 3.39-23.59 4.81-23.56 6.22-23.56L6.22-23.56Q7.82-23.56 9.32-23.59 10.83-23.63 11.46-23.63L11.46-23.63Q16.11-23.63 18.41-22.11 20.72-20.59 20.72-17.81L20.72-17.81Q20.72-16.68 20.25-15.52 19.78-14.37 18.67-13.38 17.55-12.4 15.61-11.81 13.67-11.23 10.73-11.23L10.73-11.23 7.52-11.23 7.52-11.9 10.39-11.9Q12.37-11.9 13.38-12.65 14.4-13.4 14.79-14.65 15.17-15.91 15.17-17.45L15.17-17.45Q15.17-20.09 14.24-21.54 13.3-22.99 11.03-22.99L11.03-22.99Q9.73-22.99 9.34-22.42 8.96-21.86 8.96-20.12L8.96-20.12 8.96-3.54Q8.96-2.34 9.14-1.74 9.32-1.14 9.86-0.94 10.39-0.74 11.46-0.67L11.46-0.67 11.46 0Q10.56-0.07 9.19-0.08 7.82-0.1 6.42-0.1L6.42-0.1Q4.81-0.1 3.39-0.08 1.97-0.07 1.14 0L1.14 0 1.14-0.67Q2.21-0.74 2.74-0.94 3.28-1.14 3.46-1.74 3.64-2.34 3.64-3.54L3.64-3.54 3.64-20.12Q3.64-21.36 3.46-21.94 3.28-22.53 2.72-22.74 2.17-22.96 1.14-22.99L1.14-22.99ZM7.52-11.23L7.45-11.8Q8.89-11.76 9.94-11.66 11-11.56 11.8-11.48 12.6-11.4 13.23-11.36L13.23-11.36Q16.28-11.1 17.73-10.06 19.18-9.02 19.62-6.95L19.62-6.95 20.39-3.51Q20.69-2.17 21.02-1.64 21.36-1.1 21.99-1.1L21.99-1.1Q22.42-1.14 22.71-1.32 22.99-1.5 23.33-1.87L23.33-1.87 23.8-1.47Q22.89-0.43 21.86 0.02 20.82 0.47 19.35 0.47L19.35 0.47Q17.55 0.47 16.38-0.3 15.21-1.07 14.84-3.14L14.84-3.14 14.24-6.48Q14-7.89 13.67-8.94 13.33-9.99 12.75-10.61 12.16-11.23 11.13-11.23L11.13-11.23 7.52-11.23ZM32.55-17.75L32.55-17.75Q35.49-17.75 37.16-16.01 38.83-14.27 38.83-10.33L38.83-10.33 27.84-10.33 27.77-10.96 34.62-10.96Q34.66-12.6 34.42-13.99 34.19-15.37 33.69-16.21 33.19-17.04 32.35-17.04L32.35-17.04Q31.18-17.04 30.36-15.57 29.54-14.1 29.38-10.69L29.38-10.69 29.48-10.49Q29.44-10.09 29.43-9.66 29.41-9.22 29.41-8.76L29.41-8.76Q29.41-6.45 30.06-5.01 30.71-3.58 31.72-2.92 32.72-2.27 33.75-2.27L33.75-2.27Q34.76-2.27 35.94-2.77 37.13-3.28 38.17-4.95L38.17-4.95 38.77-4.75Q38.37-3.48 37.5-2.27 36.63-1.07 35.29-0.3 33.95 0.47 32.08 0.47L32.08 0.47Q29.81 0.47 28.07-0.5 26.33-1.47 25.35-3.44 24.36-5.41 24.36-8.46L24.36-8.46Q24.36-11.56 25.42-13.64 26.47-15.71 28.32-16.73 30.18-17.75 32.55-17.75ZM56.58-17.28L56.58-17.28 56.58-16.61Q55.95-16.44 55.38-15.82 54.81-15.21 54.27-13.74L54.27-13.74 49.39 0.07Q48.86 0.03 48.31 0.03 47.76 0.03 47.22 0.07L47.22 0.07 41.27-14.7Q40.74-16.01 40.22-16.29 39.7-16.58 39.34-16.58L39.34-16.58 39.34-17.28Q40.4-17.21 41.56-17.16 42.71-17.11 44.08-17.11L44.08-17.11Q45.12-17.11 46.27-17.16 47.42-17.21 48.43-17.28L48.43-17.28 48.43-16.58Q47.72-16.58 47.17-16.51 46.62-16.44 46.42-16.08 46.22-15.71 46.49-14.77L46.49-14.77 50.4-4.41 50.06-3.94 52.7-11.26Q53.64-13.97 53-15.22 52.37-16.48 50.8-16.61L50.8-16.61 50.8-17.28Q51.57-17.24 52.45-17.21 53.34-17.18 54.01-17.18L54.01-17.18Q54.68-17.18 55.41-17.21 56.15-17.24 56.58-17.28ZM61.76-25.9L61.76-25.9Q63.16-25.9 63.98-25.22 64.8-24.53 64.8-23.33L64.8-23.33Q64.8-22.12 63.98-21.44 63.16-20.75 61.76-20.75L61.76-20.75Q60.36-20.75 59.54-21.44 58.72-22.12 58.72-23.33L58.72-23.33Q58.72-24.53 59.54-25.22 60.36-25.9 61.76-25.9ZM64.37-17.65L64.37-17.65 64.37-3.11Q64.37-1.7 64.85-1.2 65.34-0.7 66.51-0.7L66.51-0.7 66.51 0Q65.9-0.03 64.63-0.08 63.36-0.13 62.06-0.13L62.06-0.13Q60.76-0.13 59.42-0.08 58.08-0.03 57.42 0L57.42 0 57.42-0.7Q58.59-0.7 59.07-1.2 59.55-1.7 59.55-3.11L59.55-3.11 59.55-13.64Q59.55-15.14 59.1-15.86 58.65-16.58 57.42-16.58L57.42-16.58 57.42-17.28Q58.48-17.18 59.49-17.18L59.49-17.18Q60.89-17.18 62.11-17.29 63.33-17.41 64.37-17.65ZM76.57-17.75L76.57-17.75Q79.51-17.75 81.18-16.01 82.85-14.27 82.85-10.33L82.85-10.33 71.85-10.33 71.79-10.96 78.64-10.96Q78.67-12.6 78.44-13.99 78.2-15.37 77.7-16.21 77.2-17.04 76.36-17.04L76.36-17.04Q75.19-17.04 74.38-15.57 73.56-14.1 73.39-10.69L73.39-10.69 73.49-10.49Q73.46-10.09 73.44-9.66 73.42-9.22 73.42-8.76L73.42-8.76Q73.42-6.45 74.08-5.01 74.73-3.58 75.73-2.92 76.73-2.27 77.77-2.27L77.77-2.27Q78.77-2.27 79.96-2.77 81.14-3.28 82.18-4.95L82.18-4.95 82.78-4.75Q82.38-3.48 81.51-2.27 80.64-1.07 79.31-0.3 77.97 0.47 76.1 0.47L76.1 0.47Q73.82 0.47 72.09-0.5 70.35-1.47 69.36-3.44 68.38-5.41 68.38-8.46L68.38-8.46Q68.38-11.56 69.43-13.64 70.48-15.71 72.34-16.73 74.19-17.75 76.57-17.75ZM92.51-17.28L92.51-17.28 92.51-16.58Q91.77-16.58 91.22-16.49 90.67-16.41 90.48-16.01 90.3-15.61 90.6-14.7L90.6-14.7 93.78-4.78 93.34-4.31 97.25-17.31 97.92-17.01 92.81 0.07Q92.27 0.03 91.74 0.03 91.2 0.03 90.63 0.07L90.63 0.07 85.35-14.7Q84.89-16.04 84.34-16.31 83.78-16.58 83.42-16.58L83.42-16.58 83.42-17.28Q84.49-17.18 85.64-17.13 86.79-17.08 88.16-17.08L88.16-17.08Q89.2-17.08 90.35-17.14 91.5-17.21 92.51-17.28ZM109.95-17.28L109.95-17.28 109.95-16.61Q109.32-16.44 108.75-15.84 108.18-15.24 107.68-13.74L107.68-13.74 103.23 0.07Q102.7 0.03 102.15 0.03 101.6 0.03 101.06 0.07L101.06 0.07 96.35-12.8 97.25-17.31Q97.85-17.28 98.47-17.29 99.09-17.31 99.69-17.31L99.69-17.31 104.27-3.81 103.9-4.18 106.14-11.26Q107.01-14 106.33-15.24 105.64-16.48 103.97-16.61L103.97-16.61 103.97-17.28Q104.5-17.24 105.12-17.23 105.74-17.21 106.36-17.19 106.98-17.18 107.41-17.18L107.41-17.18Q108.08-17.18 108.8-17.21 109.52-17.24 109.95-17.28ZM119.28-24.1L119.28-24.1Q121.25-24.1 122.32-23.68 123.39-23.26 124.16-22.79L124.16-22.79Q124.56-22.56 124.81-22.44 125.06-22.32 125.29-22.32L125.29-22.32Q125.83-22.32 126.03-23.8L126.03-23.8 126.8-23.8Q126.76-23.16 126.71-22.27 126.66-21.39 126.65-19.95 126.63-18.51 126.63-16.18L126.63-16.18 125.86-16.18Q125.73-17.91 125.06-19.55 124.39-21.19 123.17-22.24 121.95-23.29 120.18-23.29L120.18-23.29Q118.57-23.29 117.54-22.39 116.5-21.49 116.5-19.88L116.5-19.88Q116.5-18.55 117.17-17.6 117.84-16.64 119.13-15.74 120.41-14.84 122.25-13.57L122.25-13.57Q123.85-12.53 125.12-11.5 126.39-10.46 127.16-9.16 127.93-7.85 127.93-6.05L127.93-6.05Q127.93-3.84 126.78-2.41 125.63-0.97 123.75-0.25 121.88 0.47 119.64 0.47L119.64 0.47Q117.57 0.47 116.33 0.07 115.1-0.33 114.26-0.77L114.26-0.77Q113.53-1.24 113.13-1.24L113.13-1.24Q112.59-1.24 112.39 0.23L112.39 0.23 111.62 0.23Q111.69-0.57 111.71-1.64 111.72-2.71 111.74-4.43 111.76-6.15 111.76-8.79L111.76-8.79 112.53-8.79Q112.66-6.58 113.28-4.66 113.9-2.74 115.18-1.57 116.47-0.4 118.61-0.4L118.61-0.4Q120.35-0.4 121.55-1.34 122.75-2.27 122.75-4.14L122.75-4.14Q122.75-6.22 121.35-7.57 119.94-8.92 117.74-10.36L117.74-10.36Q116.17-11.4 114.8-12.43 113.43-13.47 112.61-14.81 111.79-16.14 111.79-17.98L111.79-17.98Q111.79-20.09 112.84-21.44 113.9-22.79 115.62-23.44 117.34-24.1 119.28-24.1ZM136.92-17.65L136.92-17.65 136.92 2.74Q136.92 4.31 137.72 4.83 138.53 5.35 139.93 5.35L139.93 5.35 139.93 6.05Q139.06 6.02 137.54 5.97 136.02 5.92 134.31 5.92L134.31 5.92Q133.08 5.92 131.89 5.97 130.71 6.02 130.1 6.05L130.1 6.05 130.1 5.35Q131.21 5.35 131.66 4.88 132.11 4.41 132.11 3.07L132.11 3.07 132.11-13.64Q132.11-15.14 131.64-15.86 131.17-16.58 129.97-16.58L129.97-16.58 129.97-17.28Q131.04-17.18 132.04-17.18L132.04-17.18Q133.41-17.18 134.65-17.29 135.89-17.41 136.92-17.65ZM142.1-17.75L142.1-17.75Q144.64-17.75 146.36-15.67 148.08-13.6 148.08-9.42L148.08-9.42Q148.08-6.18 147.11-3.98 146.15-1.77 144.42-0.65 142.7 0.47 140.33 0.47L140.33 0.47Q139.03 0.47 137.96 0.02 136.89-0.43 136.32-1.27L136.32-1.27 136.65-1.7Q136.99-1.1 137.61-0.77 138.23-0.43 139.03-0.43L139.03-0.43Q140.53-0.43 141.4-1.45 142.27-2.47 142.65-4.33 143.04-6.18 143.04-8.76L143.04-8.76Q143.04-11.63 142.67-13.27 142.3-14.91 141.67-15.61 141.03-16.31 140.13-16.31L140.13-16.31Q138.93-16.31 137.94-15.37 136.96-14.44 136.82-12.7L136.82-12.7 136.65-13.87Q137.26-15.77 138.71-16.76 140.16-17.75 142.1-17.75ZM158.78-17.75L158.78-17.75Q161.22-17.75 163.06-16.84 164.89-15.94 165.93-13.94 166.97-11.93 166.97-8.62L166.97-8.62Q166.97-5.31 165.93-3.33 164.89-1.34 163.06-0.43 161.22 0.47 158.78 0.47L158.78 0.47Q156.41 0.47 154.55-0.43 152.7-1.34 151.64-3.33 150.59-5.31 150.59-8.62L150.59-8.62Q150.59-11.93 151.64-13.94 152.7-15.94 154.55-16.84 156.41-17.75 158.78-17.75ZM158.78-17.08L158.78-17.08Q157.44-17.08 156.54-15.09 155.64-13.1 155.64-8.62L155.64-8.62Q155.64-4.14 156.54-2.17 157.44-0.2 158.78-0.2L158.78-0.2Q160.15-0.2 161.03-2.17 161.92-4.14 161.92-8.62L161.92-8.62Q161.92-13.1 161.03-15.09 160.15-17.08 158.78-17.08ZM175.82-22.76L175.82-22.76 175.82-17.28 179.77-17.28 179.77-16.61 175.82-16.61 175.82-3.11Q175.82-2.11 176.19-1.69 176.56-1.27 177.29-1.27L177.29-1.27Q177.89-1.27 178.5-1.72 179.1-2.17 179.57-3.28L179.57-3.28 180.13-2.97Q179.6-1.47 178.51-0.5 177.43 0.47 175.56 0.47L175.56 0.47Q174.45 0.47 173.62 0.18 172.78-0.1 172.21-0.67L172.21-0.67Q171.48-1.4 171.24-2.49 171.01-3.58 171.01-5.31L171.01-5.31 171.01-16.61 168.2-16.61 168.2-17.28 171.01-17.28 171.01-21.69Q172.41-21.69 173.6-21.94 174.79-22.19 175.82-22.76Z" transform="translate(-1.1399999856948853, 25.899999618530273)"/>
          </g>
        </g>
      </g>
      <g data-gra="path-slogan" fill-rule="" class="tp-slogan iconsvg-slogansvg" fill="#FF64B1" transform="translate(2.2750015258789062,37.95000076293945)">
        <g transform="scale(1, 1)">
          <g transform="scale(1)">
            <path d="M1.01-7.34L1.01 0L5.14 0L5.14-0.79L1.93-0.79L1.93-7.34ZM6.31-7.34L6.31 0L10.65 0L10.65-0.79L7.24-0.79L7.24-3.46L10.02-3.46L10.02-4.25L7.24-4.25L7.24-6.55L10.53-6.55L10.53-7.34ZM13.59-6.55L13.59 0L14.53 0L14.53-6.55L16.74-6.55L16.74-7.34L11.37-7.34L11.37-6.55ZM22.76 0.13C23.22 0.13 23.64 0.04 24.03-0.13C24.41-0.31 24.74-0.57 25.02-0.90C25.30-1.23 25.52-1.63 25.67-2.11C25.82-2.58 25.90-3.11 25.90-3.70C25.90-4.28 25.82-4.81 25.67-5.27C25.52-5.74 25.30-6.13 25.02-6.46C24.74-6.78 24.41-7.03 24.03-7.21C23.64-7.38 23.22-7.47 22.76-7.47C22.30-7.47 21.87-7.38 21.49-7.21C21.10-7.04 20.77-6.79 20.50-6.47C20.22-6.14 20.01-5.75 19.86-5.28C19.70-4.82 19.63-4.29 19.63-3.70C19.63-3.11 19.70-2.58 19.86-2.11C20.01-1.63 20.22-1.23 20.50-0.90C20.77-0.57 21.10-0.31 21.49-0.13C21.87 0.04 22.30 0.13 22.76 0.13ZM22.76-0.68C22.43-0.68 22.13-0.75 21.87-0.89C21.60-1.04 21.38-1.24 21.19-1.50C21.00-1.77 20.85-2.09 20.75-2.45C20.64-2.82 20.59-3.24 20.59-3.70C20.59-4.16 20.64-4.57 20.75-4.93C20.85-5.30 21.00-5.61 21.19-5.86C21.38-6.11 21.60-6.31 21.87-6.45C22.13-6.58 22.43-6.65 22.76-6.65C23.09-6.65 23.38-6.58 23.65-6.45C23.91-6.31 24.14-6.11 24.33-5.86C24.52-5.61 24.67-5.30 24.77-4.93C24.87-4.57 24.93-4.16 24.93-3.70C24.93-3.24 24.87-2.82 24.77-2.45C24.67-2.09 24.52-1.77 24.33-1.50C24.14-1.24 23.91-1.04 23.65-0.89C23.38-0.75 23.09-0.68 22.76-0.68ZM28.64-6.55L28.64 0L29.58 0L29.58-6.55L31.79-6.55L31.79-7.34L26.43-7.34L26.43-6.55ZM32.98-7.34L32.98 0L33.91 0L33.91-3.46L37.32-3.46L37.32 0L38.26 0L38.26-7.34L37.32-7.34L37.32-4.26L33.91-4.26L33.91-7.34ZM40.14-7.34L40.14 0L44.47 0L44.47-0.79L41.06-0.79L41.06-3.46L43.85-3.46L43.85-4.25L41.06-4.25L41.06-6.55L44.36-6.55L44.36-7.34ZM46.82-3.86L46.82-6.59L48.05-6.59C48.63-6.59 49.07-6.49 49.37-6.30C49.68-6.10 49.83-5.76 49.83-5.28C49.83-4.80 49.68-4.44 49.37-4.21C49.07-3.98 48.63-3.86 48.05-3.86ZM49.92 0L50.97 0L49.12-3.20C49.62-3.32 50.01-3.56 50.31-3.90C50.61-4.25 50.76-4.70 50.76-5.28C50.76-5.66 50.70-5.98 50.57-6.24C50.44-6.50 50.27-6.71 50.04-6.88C49.81-7.04 49.54-7.16 49.22-7.23C48.91-7.30 48.56-7.34 48.19-7.34L45.90-7.34L45.90 0L46.82 0L46.82-3.10L48.15-3.10ZM52.12-1.60L51.57-0.95C51.89-0.61 52.27-0.35 52.71-0.16C53.15 0.04 53.62 0.13 54.14 0.13C54.52 0.13 54.87 0.08 55.18-0.03C55.48-0.14 55.74-0.29 55.96-0.48C56.18-0.67 56.34-0.89 56.46-1.14C56.57-1.39 56.63-1.67 56.63-1.96C56.63-2.23 56.59-2.46 56.51-2.67C56.44-2.87 56.33-3.05 56.19-3.20C56.06-3.36 55.90-3.49 55.71-3.61C55.53-3.72 55.33-3.82 55.12-3.91L54.08-4.36C53.93-4.42 53.79-4.49 53.65-4.56C53.50-4.63 53.37-4.71 53.25-4.80C53.13-4.90 53.04-5.00 52.97-5.13C52.90-5.25 52.86-5.40 52.86-5.58C52.86-5.92 52.99-6.18 53.24-6.37C53.49-6.56 53.82-6.65 54.23-6.65C54.57-6.65 54.88-6.59 55.15-6.47C55.42-6.35 55.67-6.18 55.89-5.96L56.40-6.56C56.14-6.83 55.82-7.05 55.45-7.22C55.07-7.39 54.67-7.47 54.23-7.47C53.89-7.47 53.58-7.42 53.30-7.32C53.02-7.23 52.78-7.09 52.58-6.92C52.37-6.74 52.21-6.53 52.10-6.30C51.98-6.06 51.92-5.80 51.92-5.52C51.92-5.26 51.97-5.02 52.06-4.81C52.15-4.61 52.26-4.43 52.40-4.28C52.55-4.13 52.71-4.01 52.88-3.90C53.06-3.80 53.24-3.71 53.41-3.63L54.46-3.18C54.63-3.09 54.79-3.02 54.94-2.94C55.09-2.87 55.22-2.78 55.33-2.69C55.44-2.60 55.52-2.48 55.59-2.35C55.65-2.22 55.68-2.06 55.68-1.88C55.68-1.52 55.55-1.23 55.28-1.01C55.01-0.79 54.63-0.68 54.15-0.68C53.77-0.68 53.40-0.77 53.05-0.93C52.69-1.10 52.39-1.32 52.12-1.60ZM60.07-7.34L60.07 0L60.99 0L60.99-2.33L62.26-3.81L64.45 0L65.49 0L62.84-4.54L65.13-7.34L64.08-7.34L61.03-3.66L60.99-3.66L60.99-7.34ZM66.41-7.34L66.41 0L67.29 0L67.29-3.84C67.29-4.22 67.28-4.61 67.25-4.99C67.22-5.38 67.20-5.75 67.17-6.13L67.21-6.13L68.00-4.62L70.67 0L71.63 0L71.63-7.34L70.74-7.34L70.74-3.54C70.74-3.16 70.76-2.76 70.78-2.36C70.81-1.97 70.83-1.58 70.86-1.21L70.81-1.21L70.02-2.73L67.37-7.34ZM76.21 0.13C76.68 0.13 77.10 0.04 77.48-0.13C77.87-0.31 78.20-0.57 78.48-0.90C78.76-1.23 78.97-1.63 79.13-2.11C79.28-2.58 79.36-3.11 79.36-3.70C79.36-4.28 79.28-4.81 79.13-5.27C78.97-5.74 78.76-6.13 78.48-6.46C78.20-6.78 77.87-7.03 77.48-7.21C77.10-7.38 76.68-7.47 76.21-7.47C75.75-7.47 75.33-7.38 74.94-7.21C74.56-7.04 74.23-6.79 73.95-6.47C73.68-6.14 73.46-5.75 73.31-5.28C73.16-4.82 73.08-4.29 73.08-3.70C73.08-3.11 73.16-2.58 73.31-2.11C73.46-1.63 73.68-1.23 73.95-0.90C74.23-0.57 74.56-0.31 74.94-0.13C75.33 0.04 75.75 0.13 76.21 0.13ZM76.21-0.68C75.89-0.68 75.59-0.75 75.32-0.89C75.06-1.04 74.83-1.24 74.64-1.50C74.45-1.77 74.30-2.09 74.20-2.45C74.10-2.82 74.04-3.24 74.04-3.70C74.04-4.16 74.10-4.57 74.20-4.93C74.30-5.30 74.45-5.61 74.64-5.86C74.83-6.11 75.06-6.31 75.32-6.45C75.59-6.58 75.89-6.65 76.21-6.65C76.54-6.65 76.84-6.58 77.10-6.45C77.37-6.31 77.59-6.11 77.78-5.86C77.97-5.61 78.12-5.30 78.23-4.93C78.33-4.57 78.38-4.16 78.38-3.70C78.38-3.24 78.33-2.82 78.23-2.45C78.12-2.09 77.97-1.77 77.78-1.50C77.59-1.24 77.37-1.04 77.10-0.89C76.84-0.75 76.54-0.68 76.21-0.68ZM79.98-7.34L81.54 0L82.64 0L83.73-4.42C83.79-4.70 83.85-4.98 83.91-5.25C83.98-5.52 84.04-5.80 84.10-6.08L84.14-6.08C84.20-5.80 84.26-5.52 84.31-5.25C84.37-4.98 84.43-4.70 84.50-4.42L85.61 0L86.72 0L88.25-7.34L87.35-7.34L86.58-3.34C86.50-2.95 86.43-2.55 86.37-2.16C86.30-1.77 86.23-1.38 86.17-0.97L86.12-0.97C86.03-1.38 85.94-1.77 85.85-2.17C85.76-2.56 85.67-2.96 85.58-3.34L84.57-7.34L83.72-7.34L82.70-3.34C82.62-2.95 82.53-2.55 82.44-2.16C82.35-1.77 82.27-1.38 82.18-0.97L82.14-0.97C82.07-1.38 82.00-1.77 81.93-2.16C81.85-2.55 81.78-2.94 81.72-3.34L80.94-7.34ZM92.70-2.84L92.70 0L93.64 0L93.64-2.84L95.84-7.34L94.87-7.34L93.93-5.27C93.82-5.00 93.70-4.73 93.57-4.47C93.44-4.21 93.32-3.94 93.19-3.67L93.14-3.67C93.02-3.94 92.90-4.21 92.79-4.47C92.67-4.73 92.56-5.00 92.44-5.27L91.49-7.34L90.49-7.34ZM99.25 0.13C99.71 0.13 100.14 0.04 100.52-0.13C100.90-0.31 101.24-0.57 101.51-0.90C101.79-1.23 102.01-1.63 102.16-2.11C102.32-2.58 102.39-3.11 102.39-3.70C102.39-4.28 102.32-4.81 102.16-5.27C102.01-5.74 101.79-6.13 101.51-6.46C101.24-6.78 100.90-7.03 100.52-7.21C100.14-7.38 99.71-7.47 99.25-7.47C98.79-7.47 98.37-7.38 97.98-7.21C97.60-7.04 97.27-6.79 96.99-6.47C96.72-6.14 96.50-5.75 96.35-5.28C96.20-4.82 96.12-4.29 96.12-3.70C96.12-3.11 96.20-2.58 96.35-2.11C96.50-1.63 96.72-1.23 96.99-0.90C97.27-0.57 97.60-0.31 97.98-0.13C98.37 0.04 98.79 0.13 99.25 0.13ZM99.25-0.68C98.92-0.68 98.63-0.75 98.36-0.89C98.10-1.04 97.87-1.24 97.68-1.50C97.49-1.77 97.34-2.09 97.24-2.45C97.13-2.82 97.08-3.24 97.08-3.70C97.08-4.16 97.13-4.57 97.24-4.93C97.34-5.30 97.49-5.61 97.68-5.86C97.87-6.11 98.10-6.31 98.36-6.45C98.63-6.58 98.92-6.65 99.25-6.65C99.58-6.65 99.87-6.58 100.14-6.45C100.40-6.31 100.63-6.11 100.82-5.86C101.01-5.61 101.16-5.30 101.26-4.93C101.37-4.57 101.42-4.16 101.42-3.70C101.42-3.24 101.37-2.82 101.26-2.45C101.16-2.09 101.01-1.77 100.82-1.50C100.63-1.24 100.40-1.04 100.14-0.89C99.87-0.75 99.58-0.68 99.25-0.68ZM103.80-7.34L103.80-3.03C103.80-2.44 103.87-1.95 104.00-1.54C104.14-1.14 104.32-0.81 104.56-0.56C104.79-0.31 105.07-0.14 105.40-0.03C105.72 0.08 106.07 0.13 106.44 0.13C106.81 0.13 107.16 0.08 107.48-0.03C107.80-0.14 108.08-0.31 108.31-0.56C108.55-0.81 108.73-1.14 108.87-1.54C109.00-1.95 109.07-2.44 109.07-3.03L109.07-7.34L108.17-7.34L108.17-3.01C108.17-2.57 108.13-2.20 108.04-1.90C107.95-1.60 107.83-1.36 107.67-1.19C107.51-1.01 107.33-0.88 107.12-0.80C106.91-0.72 106.69-0.68 106.44-0.68C106.20-0.68 105.98-0.72 105.77-0.80C105.56-0.88 105.38-1.01 105.23-1.19C105.07-1.36 104.95-1.60 104.86-1.90C104.77-2.20 104.73-2.57 104.73-3.01L104.73-7.34ZM111.84-3.86L111.84-6.59L113.07-6.59C113.65-6.59 114.09-6.49 114.39-6.30C114.70-6.10 114.85-5.76 114.85-5.28C114.85-4.80 114.70-4.44 114.39-4.21C114.09-3.98 113.65-3.86 113.07-3.86ZM114.94 0L115.99 0L114.13-3.20C114.63-3.32 115.03-3.56 115.33-3.90C115.63-4.25 115.78-4.70 115.78-5.28C115.78-5.66 115.71-5.98 115.59-6.24C115.46-6.50 115.28-6.71 115.06-6.88C114.83-7.04 114.56-7.16 114.24-7.23C113.92-7.30 113.58-7.34 113.21-7.34L110.91-7.34L110.91 0L111.84 0L111.84-3.10L113.17-3.10ZM119.40-7.34L119.40 0L123.74 0L123.74-0.79L120.33-0.79L120.33-3.46L123.12-3.46L123.12-4.25L120.33-4.25L120.33-6.55L123.63-6.55L123.63-7.34ZM126.46-3.79L124.32 0L125.31 0L126.37-1.98C126.46-2.16 126.55-2.34 126.65-2.53C126.75-2.72 126.85-2.93 126.95-3.15L127.00-3.15C127.12-2.93 127.23-2.72 127.33-2.53C127.43-2.34 127.53-2.16 127.62-1.98L128.70 0L129.72 0L127.59-3.75L129.59-7.34L128.61-7.34L127.63-5.46C127.54-5.29 127.46-5.12 127.38-4.96C127.30-4.80 127.21-4.61 127.11-4.39L127.06-4.39C126.95-4.61 126.85-4.80 126.77-4.96C126.68-5.12 126.59-5.29 126.49-5.46L125.50-7.34L124.47-7.34ZM130.76-7.34L130.76 0L131.69 0L131.69-2.91L133.01-2.91C133.41-2.91 133.78-2.95 134.11-3.05C134.45-3.14 134.73-3.28 134.97-3.47C135.21-3.65 135.39-3.89 135.52-4.17C135.65-4.45 135.72-4.79 135.72-5.18C135.72-5.58 135.65-5.92 135.52-6.19C135.39-6.47 135.21-6.69 134.97-6.86C134.74-7.03 134.45-7.15 134.12-7.22C133.78-7.30 133.41-7.34 133.01-7.34ZM132.90-3.67L131.69-3.67L131.69-6.59L132.90-6.59C133.53-6.59 134.01-6.48 134.32-6.28C134.63-6.07 134.79-5.71 134.79-5.18C134.79-4.66 134.64-4.27 134.33-4.03C134.02-3.79 133.54-3.67 132.90-3.67ZM137.07-7.34L137.07 0L141.41 0L141.41-0.79L138.00-0.79L138.00-3.46L140.78-3.46L140.78-4.25L138.00-4.25L138.00-6.55L141.30-6.55L141.30-7.34ZM143.76-3.86L143.76-6.59L144.99-6.59C145.56-6.59 146.00-6.49 146.31-6.30C146.61-6.10 146.77-5.76 146.77-5.28C146.77-4.80 146.61-4.44 146.31-4.21C146.00-3.98 145.56-3.86 144.99-3.86ZM146.86 0L147.91 0L146.05-3.20C146.55-3.32 146.95-3.56 147.25-3.90C147.55-4.25 147.70-4.70 147.70-5.28C147.70-5.66 147.63-5.98 147.51-6.24C147.38-6.50 147.20-6.71 146.97-6.88C146.75-7.04 146.47-7.16 146.16-7.23C145.84-7.30 145.50-7.34 145.12-7.34L142.83-7.34L142.83 0L143.76 0L143.76-3.10L145.09-3.10ZM149.19-7.34L149.19 0L150.12 0L150.12-7.34ZM152.00-7.34L152.00 0L156.34 0L156.34-0.79L152.93-0.79L152.93-3.46L155.71-3.46L155.71-4.25L152.93-4.25L152.93-6.55L156.23-6.55L156.23-7.34ZM157.76-7.34L157.76 0L158.64 0L158.64-3.84C158.64-4.22 158.63-4.61 158.61-4.99C158.58-5.38 158.55-5.75 158.52-6.13L158.57-6.13L159.36-4.62L162.02 0L162.98 0L162.98-7.34L162.10-7.34L162.10-3.54C162.10-3.16 162.11-2.76 162.14-2.36C162.16-1.97 162.19-1.58 162.21-1.21L162.17-1.21L161.37-2.73L158.72-7.34ZM164.44-3.67C164.44-3.07 164.52-2.54 164.68-2.06C164.84-1.59 165.06-1.19 165.35-0.87C165.64-0.54 165.97-0.29 166.37-0.12C166.76 0.05 167.18 0.13 167.65 0.13C168.12 0.13 168.53 0.04 168.90-0.15C169.26-0.33 169.59-0.59 169.88-0.93L169.36-1.50C169.12-1.24 168.87-1.04 168.60-0.89C168.34-0.75 168.03-0.68 167.67-0.68C167.32-0.68 167.00-0.75 166.72-0.89C166.44-1.04 166.21-1.24 166.01-1.50C165.82-1.76 165.67-2.07 165.56-2.44C165.45-2.81 165.40-3.23 165.40-3.69C165.40-4.14 165.45-4.55 165.57-4.92C165.68-5.29 165.84-5.60 166.04-5.85C166.24-6.11 166.48-6.31 166.76-6.45C167.05-6.58 167.36-6.65 167.71-6.65C168.03-6.65 168.30-6.59 168.54-6.47C168.77-6.35 168.98-6.18 169.18-5.97L169.70-6.56C169.49-6.80 169.21-7.01 168.88-7.20C168.54-7.38 168.15-7.47 167.70-7.47C167.23-7.47 166.80-7.38 166.40-7.21C166.00-7.03 165.66-6.78 165.37-6.45C165.07-6.12 164.85-5.72 164.68-5.26C164.52-4.79 164.44-4.26 164.44-3.67ZM171.11-7.34L171.11 0L175.45 0L175.45-0.79L172.04-0.79L172.04-3.46L174.83-3.46L174.83-4.25L172.04-4.25L172.04-6.55L175.34-6.55L175.34-7.34Z" transform="translate(-1.0063361908311588, 7.46925083861349)"/>
          </g>
        </g>
      </g>
    </g>
  </g>
</svg>